<svg xmlns="http://www.w3.org/2000/svg" width="71.814" height="49.717" viewBox="0 0 71.814 49.717">
  <g id="email-icon" transform="translate(30.135 -3.98)">
    <g id="mail_email_e-mail_letter" data-name="mail email e-mail letter" transform="translate(-30.135 3.98)">
      <path id="Path_2" data-name="Path 2" d="M72.052,13a2.762,2.762,0,0,0-2.762,2.762v22.1a2.762,2.762,0,0,1-2.762,2.762H11.286a2.762,2.762,0,0,1-2.762-2.762v-22.1a2.762,2.762,0,0,0-5.524,0v22.1a8.3,8.3,0,0,0,8.286,8.286H66.528a8.3,8.3,0,0,0,8.286-8.286v-22.1A2.762,2.762,0,0,0,72.052,13Z" transform="translate(-3 3.572)" fill="#fff"/>
      <path id="Path_3" data-name="Path 3" d="M36.911,39.592a2.762,2.762,0,0,0,3.314,0L72.846,15.12a2.762,2.762,0,0,0,.829-3.4,8.452,8.452,0,0,0-1.63-2.293A8.286,8.286,0,0,0,66.189,7H10.948A8.286,8.286,0,0,0,5.092,9.431a8.452,8.452,0,0,0-1.63,2.293,2.762,2.762,0,0,0,.829,3.4ZM10.948,12.524H66.189a2.486,2.486,0,0,1,.773,0L38.569,33.93,10.174,12.524a2.486,2.486,0,0,1,.773,0Z" transform="translate(-2.662 -7)" fill="#fff"/>
    </g>
  </g>
</svg>
