<svg xmlns="http://www.w3.org/2000/svg" width="31.462" height="30.687" viewBox="0 0 31.462 30.687">
  <path id="github-icon" d="M15.738,0a15.733,15.733,0,0,0-4.971,30.66c.787.144,1.035-.323,1.035-.74,0-.374.008-1.418,0-2.731-4.375.951-5.282-2.072-5.282-2.072a4.166,4.166,0,0,0-1.746-2.3c-1.428-.976.107-.957.107-.957a3.307,3.307,0,0,1,2.41,1.622,3.351,3.351,0,0,0,4.577,1.307,3.366,3.366,0,0,1,1-2.1c-3.493-.4-7.165-1.747-7.165-7.775a6.079,6.079,0,0,1,1.619-4.221,5.647,5.647,0,0,1,.154-4.164S8.8,6.1,11.8,8.138a14.925,14.925,0,0,1,7.877,0C22.683,6.1,24,6.524,24,6.524a5.657,5.657,0,0,1,.156,4.164,6.077,6.077,0,0,1,1.617,4.221c0,6.044-3.678,7.374-7.183,7.762a3.721,3.721,0,0,1,1.077,2.9v4.355c0,.421.254.886,1.052.734A15.734,15.734,0,0,0,15.738,0Z" transform="translate(-0.008)" fill="#1e2432" fill-rule="evenodd"/>
</svg>
